:SAMPLES-PER-SECOND 30
:FULLY-SPECIFIED
:DEGREES
374
root  -53.1574 39.3135 2.17482 170.754 -48.4045 -177.439
RightUpLeg  -13.306 -20.5034 9.27446
RightLeg  26.0548 -5.97322 -3.16988
RightFoot  -7.20265 0.406432 -12.5463
RightToes  0.000482159 0.542163 -0.142577
Spine  7.46194 -1.75607 7.19915
Spine1  5.7693 -1.66874 4.7437
HEad  -3.95701 -24.4809 7.41357
LeftShoulder1  7.76519 -11.0633 -46.4909
LeftArm  -10.3961 23.2641 -28.0142
LeftForeArm  40.5359 -37.0437 -6.01951
LeftHand  -0.25398 0.0180481 5.50724
RightShoulder  4.19515 7.83381 31.0534
RightArm  0.238476 -18.9575 41.6192
RightForeArm  -8.66404 23.2374 5.42581
RightHand  -3.10807 9.241 -24.7441
LeftUpLeg  -7.90099 9.67879 6.34878
LeftLeg  65.2539 2.7497 7.19664
LeftFoot  6.28568 1.00968 -6.74157
LeftToes  1.06245e-005 4.65855e-005 -8.18503e-006
375
root  -54.1701 39.5588 1.57852 172.326 -42.27 -178.712
RightUpLeg  -11.1413 -16.7814 8.29051
RightLeg  25.2223 -3.94241 -1.60363
RightFoot  -7.85608 0.331542 -12.5774
RightToes  0.000482159 0.542163 -0.142577
Spine  6.62927 -1.58308 7.10495
Spine1  6.38631 -1.3353 3.62963
HEad  -3.58856 -27.3838 8.76884
LeftShoulder1  7.64729 -11.0041 -45.9583
LeftArm  -10.1328 23.3453 -28.047
LeftForeArm  39.661 -36.2072 -5.85075
LeftHand  -0.25398 0.0180481 5.50724
RightShoulder  4.20881 7.61835 31.9
RightArm  2.89187 -17.8656 42.31
RightForeArm  -7.84061 23.5466 5.44087
RightHand  -3.02463 8.83478 -24.7395
LeftUpLeg  -11.4071 9.51618 5.54752
LeftLeg  63.3609 3.11908 7.37767
LeftFoot  3.84524 0.830823 -6.37623
LeftToes  1.06245e-005 4.65855e-005 -8.18503e-006
376
root  -55.1506 39.7957 1.01824 173.483 -36.1149 -179.419
RightUpLeg  -9.33344 -13.0038 7.45333
RightLeg  24.3232 -1.7388 -0.126879
RightFoot  -8.27028 0.283955 -12.5955
RightToes  0.000482159 0.542163 -0.142577
Spine  6.0872 -1.58553 7.49435
Spine1  6.57365 -1.10855 2.2076
HEad  -3.69186 -30.2764 9.7536
LeftShoulder1  7.66366 -11.225 -45.3461
LeftArm  -10.0123 23.6678 -27.9356
LeftForeArm  38.1246 -35.5589 -5.76986
LeftHand  -0.25398 0.0180481 5.50724
RightShoulder  4.2164 7.36909 32.8347
RightArm  4.8849 -17.7752 42.4683
RightForeArm  -5.3102 24.9044 5.60233
RightHand  -2.61595 7.64601 -23.3934
LeftUpLeg  -14.223 8.22956 5.26259
LeftLeg  59.1497 4.12311 7.94514
LeftFoot  1.23205 0.566699 -5.22559
LeftToes  1.06245e-005 4.65855e-005 -8.18503e-006
377
root  -56.1196 39.9957 0.499965 174.409 -29.2546 179.938
RightUpLeg  -7.77296 -9.1678 6.57725
RightLeg  23.6993 1.35278 1.07914
RightFoot  -8.6434 0.221211 -11.8035
RightToes  0.000482159 0.542163 -0.142577
Spine  6.27664 -1.4753 7.56195
Spine1  6.28855 -0.871452 1.14839
HEad  -4.56344 -32.6929 10.4156
LeftShoulder1  7.57931 -11.2572 -44.7245
LeftArm  -9.81491 23.9525 -27.973
LeftForeArm  36.1324 -34.8912 -5.7113
LeftHand  -0.25398 0.0180481 5.50724
RightShoulder  4.31219 7.41634 33.541
RightArm  6.45214 -18.581 41.9046
RightForeArm  -3.14446 27.1398 6.01187
RightHand  -2.26312 6.57521 -22.1072
LeftUpLeg  -15.6225 6.92336 5.65991
LeftLeg  52.4574 5.69801 8.34555
LeftFoot  -0.58338 0.510689 -5.39156
LeftToes  1.06245e-005 4.65855e-005 -8.18503e-006
378
root  -57.0881 40.133 0.0079835 175.367 -21.8604 179.308
RightUpLeg  -6.90298 -4.96407 5.60443
RightLeg  23.6764 4.58749 2.14122
RightFoot  -9.08778 0.154185 -10.9128
RightToes  0.000482159 0.542163 -0.142577
Spine  6.56568 -1.29225 7.02297
Spine1  5.93709 -0.76906 0.851306
HEad  -5.92986 -34.23 10.9374
LeftShoulder1  7.45551 -11.14 -44.3291
LeftArm  -9.68451 24.3423 -27.9075
LeftForeArm  34.2237 -34.3104 -5.67195
LeftHand  -0.25398 0.0180481 5.50724
RightShoulder  4.44715 7.67555 33.8336
RightArm  7.89745 -19.584 40.9865
RightForeArm  -2.20125 29.0848 6.43001
RightHand  -2.16645 6.1883 -21.8638
LeftUpLeg  -15.9316 5.4212 6.59926
LeftLeg  43.821 6.78891 7.34686
LeftFoot  -0.277855 0.658188 -6.75487
LeftToes  1.06245e-005 4.65855e-005 -8.18503e-006
379
root  -58.0604 40.2122 -0.475243 176.461 -14.5004 178.891
RightUpLeg  -6.99543 0.173568 4.64464
RightLeg  24.2533 6.64105 3.00484
RightFoot  -9.68994 0.0835816 -10.2878
RightToes  0.000482159 0.542163 -0.142577
Spine  6.55576 -1.19499 6.48724
Spine1  5.58116 -0.816184 0.803474
HEad  -7.39352 -35.1246 11.5736
LeftShoulder1  7.45509 -11.1806 -44.1981
LeftArm  -9.81668 24.9712 -27.496
LeftForeArm  33.2004 -33.8481 -5.61395
LeftHand  -0.25398 0.0180481 5.50724
RightShoulder  4.44687 7.7393 33.6052
RightArm  8.66053 -20.3882 40.3519
RightForeArm  -1.61577 30.0032 6.62734
RightHand  -2.19341 6.23055 -22.047
LeftUpLeg  -15.8693 2.46139 8.02128
LeftLeg  34.8101 5.85452 4.74114
LeftFoot  0.449762 0.854098 -8.30149
LeftToes  1.06245e-005 4.65855e-005 -8.18503e-006
380
root  -59.0268 40.2546 -0.942711 177.495 -7.45291 178.529
RightUpLeg  -7.63674 6.14674 3.43405
RightLeg  25.1859 7.65551 3.68243
RightFoot  -10.5275 -0.00365044 -9.38026
RightToes  0.000482159 0.542163 -0.142577
Spine  6.92873 -1.28511 5.86755
Spine1  4.80203 -1.00782 0.665225
HEad  -8.72173 -35.6099 12.3292
LeftShoulder1  7.49157 -11.3023 -44.0426
LeftArm  -10.3157 25.7053 -26.9872
LeftForeArm  33.4018 -33.331 -5.47492
LeftHand  -0.25398 0.0180481 5.50724
RightShoulder  4.30478 7.51796 33.1132
RightArm  8.79491 -20.9089 39.8969
RightForeArm  -0.976453 30.0707 6.61049
RightHand  -2.16762 6.31249 -21.6549
LeftUpLeg  -15.8145 -2.71807 9.6537
LeftLeg  27.1336 2.66923 1.82084
LeftFoot  -0.26477 0.910478 -9.35972
LeftToes  1.06245e-005 4.65855e-005 -8.18503e-006
381
root  -59.9913 40.2543 -1.38216 178.126 -0.640331 177.996
RightUpLeg  -8.38104 12.018 1.71472
RightLeg  26.3894 8.8626 4.53012
RightFoot  -11.5747 -0.0943762 -8.106
RightToes  0.000482159 0.542163 -0.142577
Spine  8.22149 -1.4689 4.58105
Spine1  3.58631 -1.33059 0.806772
HEad  -9.81517 -35.5746 12.91
LeftShoulder1  7.45996 -11.3298 -43.7617
LeftArm  -11.0615 26.3347 -26.667
LeftForeArm  34.0853 -32.6375 -5.26818
LeftHand  -0.25398 0.0180481 5.50724
RightShoulder  4.19059 7.32059 32.7719
RightArm  9.14951 -21.0673 38.9589
RightForeArm  -1.48856 29.6787 6.54003
RightHand  -2.17829 6.62409 -21.2234
LeftUpLeg  -15.6756 -9.51852 11.0487
LeftLeg  21.4308 -1.70687 -0.418636
LeftFoot  -1.86436 0.808194 -9.58946
LeftToes  1.06245e-005 4.65855e-005 -8.18503e-006
382
root  -61.0036 40.1784 -1.8233 178.33 6.27893 177.661
RightUpLeg  -9.23481 17.3856 -0.0663637
RightLeg  27.7838 10.3584 5.64362
RightFoot  -12.7393 -0.170826 -6.93058
RightToes  0.000482159 0.542163 -0.142577
Spine  9.77498 -1.5201 3.47348
Spine1  2.69568 -1.50958 1.12731
HEad  -10.7911 -34.9554 13.1944
LeftShoulder1  7.47312 -11.4028 -43.6172
LeftArm  -11.7572 26.7526 -26.4606
LeftForeArm  34.0708 -31.9277 -5.09884
LeftHand  -0.25398 0.0180481 5.50724
RightShoulder  4.15584 7.28995 32.5595
RightArm  9.88321 -20.82 37.5518
RightForeArm  -4.53603 29.0113 6.5348
RightHand  -2.41901 7.29756 -22.2611
LeftUpLeg  -15.1875 -15.5414 12.1564
LeftLeg  17.6791 -6.40364 -1.97478
LeftFoot  -3.41718 0.717275 -10.058
LeftToes  1.06245e-005 4.65855e-005 -8.18503e-006
383
root  -62.0918 40.0663 -2.30744 178.451 13.5223 177.955
RightUpLeg  -10.1247 22.4614 -1.48314
RightLeg  28.6531 11.7873 6.67075
RightFoot  -13.8197 -0.218674 -5.7922
RightToes  0.000482159 0.542163 -0.142577
Spine  10.8924 -1.42041 3.71156
Spine1  2.6059 -1.30394 0.829354
HEad  -11.8911 -33.8491 13.2185
LeftShoulder1  7.61704 -11.6344 -43.7865
LeftArm  -12.2388 26.9913 -26.2667
LeftForeArm  33.0822 -31.5336 -5.05943
LeftHand  -0.25398 0.0180481 5.50724
RightShoulder  4.09318 7.23559 32.1694
RightArm  10.4096 -20.2672 36.2916
RightForeArm  -9.39397 28.3341 6.61522
RightHand  -2.81333 7.87428 -24.679
LeftUpLeg  -14.1289 -17.2371 12.7419
LeftLeg  16.1013 -10.1774 -2.99239
LeftFoot  -5.00633 0.684527 -11.8352
LeftToes  1.06245e-005 4.65855e-005 -8.18503e-006
384
root  -63.2116 40.0047 -2.8167 178.727 20.6711 178.504
RightUpLeg  -10.9943 27.0505 -3.17685
RightLeg  28.4172 13.9041 7.80025
RightFoot  -14.6919 -0.221129 -4.18656
RightToes  0.000482159 0.542163 -0.142577
Spine  11.9135 -1.33286 4.27309
Spine1  2.68651 -0.993619 0.132818
HEad  -13.0864 -32.3295 12.9404
LeftShoulder1  7.78944 -11.8569 -44.1487
LeftArm  -12.6008 27.1798 -26.2446
LeftForeArm  32.0289 -31.5888 -5.13022
LeftHand  -0.25398 0.0180481 5.50724
RightShoulder  3.973 7.05894 31.6672
RightArm  10.7992 -19.5137 35.3042
RightForeArm  -13.2957 27.7929 6.67285
RightHand  -3.00625 7.87999 -26.2811
LeftUpLeg  -12.7502 -13.7799 12.2107
LeftLeg  16.6861 -11.4349 -3.48295
LeftFoot  -6.86915 0.57523 -13.5914
LeftToes  1.06245e-005 4.65855e-005 -8.18503e-006
